<mxfile host="app.diagrams.net" modified="2023-06-30T18:16:44.922Z" agent="Mozilla/5.0 (Macintosh; Intel Mac OS X 10.15; rv:109.0) Gecko/20100101 Firefox/114.0" etag="AUH2gUVucUvqguESkh3m" version="21.5.1" type="device">
  <diagram name="Page-1" id="3j2DbRwhAZ5pBn7KZ3mj">
    <mxGraphModel dx="3465" dy="1773" grid="0" gridSize="10" guides="1" tooltips="1" connect="1" arrows="1" fold="1" page="0" pageScale="1" pageWidth="850" pageHeight="1100" math="0" shadow="0">
      <root>
        <mxCell id="0" />
        <mxCell id="1" parent="0" />
        <mxCell id="Dnke_G4tDf7t7-ALpO1Q-34" value="" style="rounded=0;whiteSpace=wrap;html=1;" vertex="1" parent="1">
          <mxGeometry x="-321" y="-84" width="1158" height="535" as="geometry" />
        </mxCell>
        <mxCell id="Dnke_G4tDf7t7-ALpO1Q-35" value="" style="sketch=0;points=[[0,0,0],[0.25,0,0],[0.5,0,0],[0.75,0,0],[1,0,0],[0,1,0],[0.25,1,0],[0.5,1,0],[0.75,1,0],[1,1,0],[0,0.25,0],[0,0.5,0],[0,0.75,0],[1,0.25,0],[1,0.5,0],[1,0.75,0]];points=[[0,0,0],[0.25,0,0],[0.5,0,0],[0.75,0,0],[1,0,0],[0,1,0],[0.25,1,0],[0.5,1,0],[0.75,1,0],[1,1,0],[0,0.25,0],[0,0.5,0],[0,0.75,0],[1,0.25,0],[1,0.5,0],[1,0.75,0]];outlineConnect=0;fontColor=#232F3E;gradientColor=#F34482;gradientDirection=north;fillColor=#BC1356;strokeColor=#ffffff;dashed=0;verticalLabelPosition=bottom;verticalAlign=top;align=center;html=1;fontSize=12;fontStyle=0;aspect=fixed;shape=mxgraph.aws4.resourceIcon;resIcon=mxgraph.aws4.organizations;" vertex="1" parent="1">
          <mxGeometry x="-321" y="-166" width="78" height="78" as="geometry" />
        </mxCell>
        <mxCell id="Dnke_G4tDf7t7-ALpO1Q-36" value="&lt;font style=&quot;font-size: 28px;&quot;&gt;Organization&lt;/font&gt;" style="text;html=1;align=center;verticalAlign=middle;resizable=0;points=[];autosize=1;strokeColor=none;fillColor=none;" vertex="1" parent="1">
          <mxGeometry x="-235" y="-142" width="177" height="46" as="geometry" />
        </mxCell>
        <mxCell id="Dnke_G4tDf7t7-ALpO1Q-37" value="" style="rounded=0;whiteSpace=wrap;html=1;" vertex="1" parent="1">
          <mxGeometry x="-295" y="-73" width="336" height="184" as="geometry" />
        </mxCell>
        <mxCell id="Dnke_G4tDf7t7-ALpO1Q-38" value="" style="sketch=0;outlineConnect=0;fontColor=#232F3E;gradientColor=none;fillColor=#B0084D;strokeColor=none;dashed=0;verticalLabelPosition=bottom;verticalAlign=top;align=center;html=1;fontSize=12;fontStyle=0;aspect=fixed;pointerEvents=1;shape=mxgraph.aws4.organizations_management_account2;" vertex="1" parent="1">
          <mxGeometry x="-295" y="-73" width="69" height="69" as="geometry" />
        </mxCell>
        <mxCell id="Dnke_G4tDf7t7-ALpO1Q-91" style="edgeStyle=orthogonalEdgeStyle;rounded=0;orthogonalLoop=1;jettySize=auto;html=1;" edge="1" parent="1" source="Dnke_G4tDf7t7-ALpO1Q-39" target="Dnke_G4tDf7t7-ALpO1Q-58">
          <mxGeometry relative="1" as="geometry" />
        </mxCell>
        <mxCell id="Dnke_G4tDf7t7-ALpO1Q-92" style="edgeStyle=orthogonalEdgeStyle;rounded=0;orthogonalLoop=1;jettySize=auto;html=1;" edge="1" parent="1" source="Dnke_G4tDf7t7-ALpO1Q-39" target="Dnke_G4tDf7t7-ALpO1Q-88">
          <mxGeometry relative="1" as="geometry">
            <Array as="points">
              <mxPoint x="100" y="23" />
              <mxPoint x="100" y="212" />
            </Array>
          </mxGeometry>
        </mxCell>
        <mxCell id="Dnke_G4tDf7t7-ALpO1Q-39" value="" style="sketch=0;outlineConnect=0;fontColor=#232F3E;gradientColor=none;fillColor=#B0084D;strokeColor=none;dashed=0;verticalLabelPosition=bottom;verticalAlign=top;align=center;html=1;fontSize=12;fontStyle=0;aspect=fixed;pointerEvents=1;shape=mxgraph.aws4.template;" vertex="1" parent="1">
          <mxGeometry x="-149" y="-9" width="54" height="64.8" as="geometry" />
        </mxCell>
        <mxCell id="Dnke_G4tDf7t7-ALpO1Q-40" value="&lt;font style=&quot;font-size: 15px;&quot;&gt;Org Management Account&lt;br&gt;&lt;/font&gt;" style="text;html=1;strokeColor=none;fillColor=none;align=center;verticalAlign=middle;whiteSpace=wrap;rounded=0;" vertex="1" parent="1">
          <mxGeometry x="-235" y="-71" width="206" height="30" as="geometry" />
        </mxCell>
        <mxCell id="Dnke_G4tDf7t7-ALpO1Q-43" value="" style="rounded=0;whiteSpace=wrap;html=1;" vertex="1" parent="1">
          <mxGeometry x="393" y="-68.5" width="413" height="238.5" as="geometry" />
        </mxCell>
        <mxCell id="Dnke_G4tDf7t7-ALpO1Q-47" value="" style="group" vertex="1" connectable="0" parent="1">
          <mxGeometry x="474" y="-56.75" width="246" height="215" as="geometry" />
        </mxCell>
        <mxCell id="Dnke_G4tDf7t7-ALpO1Q-44" value="AWS Account" style="points=[[0,0],[0.25,0],[0.5,0],[0.75,0],[1,0],[1,0.25],[1,0.5],[1,0.75],[1,1],[0.75,1],[0.5,1],[0.25,1],[0,1],[0,0.75],[0,0.5],[0,0.25]];outlineConnect=0;gradientColor=none;html=1;whiteSpace=wrap;fontSize=12;fontStyle=0;container=1;pointerEvents=0;collapsible=0;recursiveResize=0;shape=mxgraph.aws4.group;grIcon=mxgraph.aws4.group_account;strokeColor=#CD2264;fillColor=none;verticalAlign=top;align=left;spacingLeft=30;fontColor=#CD2264;dashed=0;" vertex="1" parent="Dnke_G4tDf7t7-ALpO1Q-47">
          <mxGeometry x="92" width="154" height="161" as="geometry" />
        </mxCell>
        <mxCell id="Dnke_G4tDf7t7-ALpO1Q-46" value="AWS Account" style="points=[[0,0],[0.25,0],[0.5,0],[0.75,0],[1,0],[1,0.25],[1,0.5],[1,0.75],[1,1],[0.75,1],[0.5,1],[0.25,1],[0,1],[0,0.75],[0,0.5],[0,0.25]];outlineConnect=0;gradientColor=none;html=1;whiteSpace=wrap;fontSize=12;fontStyle=0;container=1;pointerEvents=0;collapsible=0;recursiveResize=0;shape=mxgraph.aws4.group;grIcon=mxgraph.aws4.group_account;strokeColor=#CD2264;fillColor=default;verticalAlign=top;align=left;spacingLeft=30;fontColor=#CD2264;dashed=0;" vertex="1" parent="Dnke_G4tDf7t7-ALpO1Q-47">
          <mxGeometry x="46" y="27" width="154" height="161" as="geometry" />
        </mxCell>
        <mxCell id="Dnke_G4tDf7t7-ALpO1Q-45" value="AWS Account" style="points=[[0,0],[0.25,0],[0.5,0],[0.75,0],[1,0],[1,0.25],[1,0.5],[1,0.75],[1,1],[0.75,1],[0.5,1],[0.25,1],[0,1],[0,0.75],[0,0.5],[0,0.25]];outlineConnect=0;gradientColor=none;html=1;whiteSpace=wrap;fontSize=12;fontStyle=0;container=1;pointerEvents=0;collapsible=0;recursiveResize=0;shape=mxgraph.aws4.group;grIcon=mxgraph.aws4.group_account;strokeColor=#CD2264;fillColor=#FFFFFF;verticalAlign=top;align=left;spacingLeft=30;fontColor=#CD2264;dashed=0;" vertex="1" parent="Dnke_G4tDf7t7-ALpO1Q-47">
          <mxGeometry y="54" width="154" height="161" as="geometry" />
        </mxCell>
        <mxCell id="Dnke_G4tDf7t7-ALpO1Q-94" value="&lt;font style=&quot;font-size: 15px;&quot;&gt;FSS-Org-Stack&lt;/font&gt;" style="text;html=1;strokeColor=none;fillColor=none;align=center;verticalAlign=middle;whiteSpace=wrap;rounded=0;" vertex="1" parent="Dnke_G4tDf7t7-ALpO1Q-45">
          <mxGeometry x="20" y="117.75" width="104" height="30" as="geometry" />
        </mxCell>
        <mxCell id="Dnke_G4tDf7t7-ALpO1Q-58" value="&lt;font style=&quot;font-size: 21px;&quot;&gt;OU ID: A&lt;br&gt;&lt;/font&gt;" style="sketch=0;outlineConnect=0;fontColor=#232F3E;gradientColor=none;fillColor=#B0084D;strokeColor=none;dashed=0;verticalLabelPosition=bottom;verticalAlign=top;align=center;html=1;fontSize=12;fontStyle=0;aspect=fixed;pointerEvents=1;shape=mxgraph.aws4.organizations_organizational_unit2;" vertex="1" parent="1">
          <mxGeometry x="292" y="-73" width="78" height="78" as="geometry" />
        </mxCell>
        <mxCell id="Dnke_G4tDf7t7-ALpO1Q-83" value="" style="rounded=0;whiteSpace=wrap;html=1;" vertex="1" parent="1">
          <mxGeometry x="393" y="186.5" width="413" height="238.5" as="geometry" />
        </mxCell>
        <mxCell id="Dnke_G4tDf7t7-ALpO1Q-84" value="" style="group" vertex="1" connectable="0" parent="1">
          <mxGeometry x="474" y="198.25" width="246" height="215" as="geometry" />
        </mxCell>
        <mxCell id="Dnke_G4tDf7t7-ALpO1Q-85" value="AWS Account" style="points=[[0,0],[0.25,0],[0.5,0],[0.75,0],[1,0],[1,0.25],[1,0.5],[1,0.75],[1,1],[0.75,1],[0.5,1],[0.25,1],[0,1],[0,0.75],[0,0.5],[0,0.25]];outlineConnect=0;gradientColor=none;html=1;whiteSpace=wrap;fontSize=12;fontStyle=0;container=1;pointerEvents=0;collapsible=0;recursiveResize=0;shape=mxgraph.aws4.group;grIcon=mxgraph.aws4.group_account;strokeColor=#CD2264;fillColor=none;verticalAlign=top;align=left;spacingLeft=30;fontColor=#CD2264;dashed=0;" vertex="1" parent="Dnke_G4tDf7t7-ALpO1Q-84">
          <mxGeometry x="92" width="154" height="161" as="geometry" />
        </mxCell>
        <mxCell id="Dnke_G4tDf7t7-ALpO1Q-86" value="AWS Account" style="points=[[0,0],[0.25,0],[0.5,0],[0.75,0],[1,0],[1,0.25],[1,0.5],[1,0.75],[1,1],[0.75,1],[0.5,1],[0.25,1],[0,1],[0,0.75],[0,0.5],[0,0.25]];outlineConnect=0;gradientColor=none;html=1;whiteSpace=wrap;fontSize=12;fontStyle=0;container=1;pointerEvents=0;collapsible=0;recursiveResize=0;shape=mxgraph.aws4.group;grIcon=mxgraph.aws4.group_account;strokeColor=#CD2264;fillColor=default;verticalAlign=top;align=left;spacingLeft=30;fontColor=#CD2264;dashed=0;" vertex="1" parent="Dnke_G4tDf7t7-ALpO1Q-84">
          <mxGeometry x="46" y="27" width="154" height="161" as="geometry" />
        </mxCell>
        <mxCell id="Dnke_G4tDf7t7-ALpO1Q-87" value="AWS Account" style="points=[[0,0],[0.25,0],[0.5,0],[0.75,0],[1,0],[1,0.25],[1,0.5],[1,0.75],[1,1],[0.75,1],[0.5,1],[0.25,1],[0,1],[0,0.75],[0,0.5],[0,0.25]];outlineConnect=0;gradientColor=none;html=1;whiteSpace=wrap;fontSize=12;fontStyle=0;container=1;pointerEvents=0;collapsible=0;recursiveResize=0;shape=mxgraph.aws4.group;grIcon=mxgraph.aws4.group_account;strokeColor=#CD2264;fillColor=#FFFFFF;verticalAlign=top;align=left;spacingLeft=30;fontColor=#CD2264;dashed=0;" vertex="1" parent="Dnke_G4tDf7t7-ALpO1Q-84">
          <mxGeometry y="54" width="154" height="161" as="geometry" />
        </mxCell>
        <mxCell id="Dnke_G4tDf7t7-ALpO1Q-88" value="&lt;font style=&quot;font-size: 21px;&quot;&gt;OU ID: X&lt;br&gt;&lt;/font&gt;" style="sketch=0;outlineConnect=0;fontColor=#232F3E;gradientColor=none;fillColor=#B0084D;strokeColor=none;dashed=0;verticalLabelPosition=bottom;verticalAlign=top;align=center;html=1;fontSize=12;fontStyle=0;aspect=fixed;pointerEvents=1;shape=mxgraph.aws4.organizations_organizational_unit2;" vertex="1" parent="1">
          <mxGeometry x="292" y="182" width="78" height="78" as="geometry" />
        </mxCell>
        <mxCell id="Dnke_G4tDf7t7-ALpO1Q-89" value="" style="sketch=0;outlineConnect=0;fontColor=#232F3E;gradientColor=none;fillColor=#B0084D;strokeColor=none;dashed=0;verticalLabelPosition=bottom;verticalAlign=top;align=center;html=1;fontSize=12;fontStyle=0;aspect=fixed;pointerEvents=1;shape=mxgraph.aws4.template;" vertex="1" parent="1">
          <mxGeometry x="521" y="44" width="54" height="64.8" as="geometry" />
        </mxCell>
        <mxCell id="Dnke_G4tDf7t7-ALpO1Q-90" value="" style="sketch=0;outlineConnect=0;fontColor=#232F3E;gradientColor=none;fillColor=#B0084D;strokeColor=none;dashed=0;verticalLabelPosition=bottom;verticalAlign=top;align=center;html=1;fontSize=12;fontStyle=0;aspect=fixed;pointerEvents=1;shape=mxgraph.aws4.template;" vertex="1" parent="1">
          <mxGeometry x="516" y="298" width="54" height="64.8" as="geometry" />
        </mxCell>
        <mxCell id="Dnke_G4tDf7t7-ALpO1Q-93" value="&lt;font style=&quot;font-size: 15px;&quot;&gt;FSS-Org-Stack&lt;/font&gt;" style="text;html=1;strokeColor=none;fillColor=none;align=center;verticalAlign=middle;whiteSpace=wrap;rounded=0;" vertex="1" parent="1">
          <mxGeometry x="-176" y="61.4" width="104" height="30" as="geometry" />
        </mxCell>
        <mxCell id="Dnke_G4tDf7t7-ALpO1Q-95" value="&lt;font style=&quot;font-size: 15px;&quot;&gt;FSS-Org-Stack&lt;/font&gt;" style="text;html=1;strokeColor=none;fillColor=none;align=center;verticalAlign=middle;whiteSpace=wrap;rounded=0;" vertex="1" parent="1">
          <mxGeometry x="491" y="367" width="104" height="30" as="geometry" />
        </mxCell>
        <mxCell id="Dnke_G4tDf7t7-ALpO1Q-100" value="&lt;font style=&quot;font-size: 17px;&quot;&gt;AWS Account&lt;/font&gt; &lt;font style=&quot;font-size: 18px;&quot;&gt;Level&lt;/font&gt;" style="points=[[0,0],[0.25,0],[0.5,0],[0.75,0],[1,0],[1,0.25],[1,0.5],[1,0.75],[1,1],[0.75,1],[0.5,1],[0.25,1],[0,1],[0,0.75],[0,0.5],[0,0.25]];outlineConnect=0;gradientColor=none;html=1;whiteSpace=wrap;fontSize=12;fontStyle=0;container=1;pointerEvents=0;collapsible=0;recursiveResize=0;shape=mxgraph.aws4.group;grIcon=mxgraph.aws4.group_account;strokeColor=#CD2264;fillColor=none;verticalAlign=top;align=left;spacingLeft=30;fontColor=#CD2264;dashed=0;" vertex="1" parent="1">
          <mxGeometry x="1289" y="-106.5" width="858" height="580" as="geometry" />
        </mxCell>
        <mxCell id="Dnke_G4tDf7t7-ALpO1Q-101" value="&lt;font style=&quot;font-size: 18px;&quot;&gt;Main FSS Scanner Region&lt;/font&gt;" style="points=[[0,0],[0.25,0],[0.5,0],[0.75,0],[1,0],[1,0.25],[1,0.5],[1,0.75],[1,1],[0.75,1],[0.5,1],[0.25,1],[0,1],[0,0.75],[0,0.5],[0,0.25]];outlineConnect=0;gradientColor=none;html=1;whiteSpace=wrap;fontSize=12;fontStyle=0;container=1;pointerEvents=0;collapsible=0;recursiveResize=0;shape=mxgraph.aws4.group;grIcon=mxgraph.aws4.group_region;strokeColor=#147EBA;fillColor=none;verticalAlign=top;align=left;spacingLeft=30;fontColor=#147EBA;dashed=1;" vertex="1" parent="Dnke_G4tDf7t7-ALpO1Q-100">
          <mxGeometry x="27" y="50" width="275" height="473" as="geometry" />
        </mxCell>
        <mxCell id="Dnke_G4tDf7t7-ALpO1Q-133" value="" style="rounded=0;whiteSpace=wrap;html=1;strokeColor=#ff9200;strokeWidth=4;" vertex="1" parent="Dnke_G4tDf7t7-ALpO1Q-101">
          <mxGeometry x="4" y="393" width="809" height="73" as="geometry" />
        </mxCell>
        <mxCell id="Dnke_G4tDf7t7-ALpO1Q-104" value="" style="shape=image;verticalLabelPosition=bottom;labelBackgroundColor=default;verticalAlign=top;aspect=fixed;imageAspect=0;image=data:image/svg+xml,%3C%3Fxml%20version%3D%221.0%22%20encoding%3D%22utf-8%22%3F%3E%3Csvg%20version%3D%221.0%22%20id%3D%22Layer_1%22%20xmlns%3D%22http%3A%2F%2Fwww.w3.org%2F2000%2Fsvg%22%20xmlns%3Axlink%3D%22http%3A%2F%2Fwww.w3.org%2F1999%2Fxlink%22%20x%3D%220px%22%20y%3D%220px%22%20%20width%3D%2240px%22%20height%3D%2240px%22%20viewBox%3D%220%200%2040%2040%22%20enable-background%3D%22new%200%200%2040%2040%22%20xml%3Aspace%3D%22preserve%22%3E%3Cg%20id%3D%22Shape_2_%22%3E%20%3Cpath%20fill%3D%22%23FFFFFF%22%20d%3D%22M39.8970528%2C19.9574013c0%2C11.0046177-8.9155159%2C19.9165802-19.918354%2C19.9165802%20%20c-11.0063896%2C0-19.9272289-8.9119625-19.9272289-19.9165802c0-11.0063906%2C8.9190645-19.918354%2C19.9272308-19.918354%20%20C30.9815407%2C0.0390483%2C39.8970528%2C8.9527864%2C39.8970528%2C19.9574013L39.8970528%2C19.9574013z%22%2F%3E%20%3Cpath%20fill%3D%22%23D71921%22%20d%3D%22M3.6332955%2C23.7823944c0.0124245-0.0141983%2C0.0195246-0.0390472%2C0.0283985-0.0621223%20%20c0.0266247-0.0709991%2C0.0585737-0.1402206%2C0.0816481-0.2165413c0.0283985-0.0656738%2C0.0514727-0.120697%2C0.0763226-0.1899204%20%20c0.0124247-0.0354996%2C0.0248492-0.0656738%2C0.0354989-0.0905228c0.3709621-0.9194164%2C0.8395457-1.869009%2C1.4093008-2.8168259%20%20c0.0745473-0.1686192%2C0.1526446-0.3194885%2C0.234292-0.4810085l-2.3997159%2C0.0106487l0.5839546-1.2797298%20%20c1.9737313-0.5413551%2C5.2644663-1.6435909%2C8.4096556-4.6822863l0.0869713-0.0124245h1.6560163l-2.1370239%2C4.579339%20%20l3.4327297-0.0088749l-0.6318779%2C1.3684769l-3.4256306%2C0.0142002c0%2C0-1.6080942%2C3.2144146-2.1547747%2C5.5165081%20%20c-0.4242105%2C2.5701103-0.0088749%2C4.4834938%2C2.2932196%2C5.2041168c1.4217253%2C0.4366341%2C3.1931133%2C0.3336868%2C5.1029472-0.2023449%20%20c4.4462204-1.3897743%2C9.1959534-4.4426689%2C12.6748333-8.4859772c5.7259502-6.6524687%2C5.8413219-13.4575806%2C0.2520428-15.1863699%20%20c-3.5800514-1.1199861-8.631525%2C0.1224704-13.3049364%2C2.9055738c5.8306704-3.7593188%2C12.232873-5.525382%2C16.6577911-4.1444807%20%20c0.8235741%2C0.2538166%2C1.5459709%2C0.6105785%2C2.1565514%2C1.0525384c-3.6474991-4.0202341-8.931488-6.553071-14.788784-6.553071%20%20C8.9385881%2C0.021296%2C0%2C8.9545593%2C0%2C19.9804745c0%2C4.0628319%2C1.2176073%2C7.8505497%2C3.3120346%2C11.0099411%20%20C2.5186348%2C29.0415344%2C2.632231%2C26.5370979%2C3.6332955%2C23.7823944L3.6332955%2C23.7823944L3.6332955%2C23.7823944z%22%2F%3E%20%3Cpath%20fill%3D%22%23D71921%22%20d%3D%22M36.9577599%2C9.4266958c1.3400764%2C3.624423-0.3283653%2C9.0397577-4.9414291%2C14.392972%20%20c-6.9204845%2C8.0457935-17.8541031%2C12.912674-24.4142723%2C10.8785934c-0.812922-0.2573662-1.521122-0.6070251-2.1281505-1.0401115%20%20c3.6457233%2C3.8853378%2C8.8196659%2C6.3205528%2C14.5669174%2C6.3205528C31.0631866%2C39.9787025%2C40%2C31.0418911%2C40%2C20.015976%20%20C40%2C16.1253128%2C38.8888893%2C12.4920139%2C36.9577599%2C9.4266958L36.9577599%2C9.4266958L36.9577599%2C9.4266958z%22%2F%3E%3C%2Fg%3E%3Crect%20fill%3D%22none%22%20width%3D%2240%22%20height%3D%2240%22%2F%3E%3C%2Fsvg%3E;fontSize=14;" vertex="1" parent="Dnke_G4tDf7t7-ALpO1Q-101">
          <mxGeometry x="84" y="40" width="82" height="82" as="geometry" />
        </mxCell>
        <mxCell id="Dnke_G4tDf7t7-ALpO1Q-105" value="&lt;font style=&quot;font-size: 16px;&quot;&gt;EventBus&lt;/font&gt;" style="sketch=0;outlineConnect=0;fontColor=#232F3E;gradientColor=none;fillColor=#B0084D;strokeColor=none;dashed=0;verticalLabelPosition=bottom;verticalAlign=top;align=center;html=1;fontSize=12;fontStyle=0;aspect=fixed;pointerEvents=1;shape=mxgraph.aws4.eventbridge_default_event_bus_resource;" vertex="1" parent="Dnke_G4tDf7t7-ALpO1Q-101">
          <mxGeometry x="82" y="216" width="78" height="53" as="geometry" />
        </mxCell>
        <mxCell id="Dnke_G4tDf7t7-ALpO1Q-114" value="" style="sketch=0;outlineConnect=0;fontColor=#232F3E;gradientColor=none;fillColor=#3F8624;strokeColor=none;dashed=0;verticalLabelPosition=bottom;verticalAlign=top;align=center;html=1;fontSize=12;fontStyle=0;aspect=fixed;pointerEvents=1;shape=mxgraph.aws4.bucket;" vertex="1" parent="Dnke_G4tDf7t7-ALpO1Q-101">
          <mxGeometry x="33" y="403" width="42" height="43.68" as="geometry" />
        </mxCell>
        <mxCell id="Dnke_G4tDf7t7-ALpO1Q-115" value="" style="sketch=0;outlineConnect=0;fontColor=#232F3E;gradientColor=none;fillColor=#3F8624;strokeColor=none;dashed=0;verticalLabelPosition=bottom;verticalAlign=top;align=center;html=1;fontSize=12;fontStyle=0;aspect=fixed;pointerEvents=1;shape=mxgraph.aws4.bucket;" vertex="1" parent="Dnke_G4tDf7t7-ALpO1Q-101">
          <mxGeometry x="102" y="403" width="42" height="43.68" as="geometry" />
        </mxCell>
        <mxCell id="Dnke_G4tDf7t7-ALpO1Q-116" value="" style="sketch=0;outlineConnect=0;fontColor=#232F3E;gradientColor=none;fillColor=#3F8624;strokeColor=none;dashed=0;verticalLabelPosition=bottom;verticalAlign=top;align=center;html=1;fontSize=12;fontStyle=0;aspect=fixed;pointerEvents=1;shape=mxgraph.aws4.bucket;" vertex="1" parent="Dnke_G4tDf7t7-ALpO1Q-101">
          <mxGeometry x="171" y="403" width="42" height="43.68" as="geometry" />
        </mxCell>
        <mxCell id="Dnke_G4tDf7t7-ALpO1Q-119" value="&lt;font style=&quot;font-size: 16px;&quot;&gt;Trend FSS Scanner Solution&lt;br&gt;&lt;/font&gt;" style="text;html=1;strokeColor=none;fillColor=none;align=center;verticalAlign=middle;whiteSpace=wrap;rounded=0;" vertex="1" parent="Dnke_G4tDf7t7-ALpO1Q-101">
          <mxGeometry x="54" y="130" width="138" height="30" as="geometry" />
        </mxCell>
        <mxCell id="Dnke_G4tDf7t7-ALpO1Q-129" style="edgeStyle=orthogonalEdgeStyle;rounded=0;orthogonalLoop=1;jettySize=auto;html=1;" edge="1" parent="Dnke_G4tDf7t7-ALpO1Q-101">
          <mxGeometry relative="1" as="geometry">
            <mxPoint x="52" y="408" as="sourcePoint" />
            <mxPoint x="121" y="277" as="targetPoint" />
            <Array as="points">
              <mxPoint x="52" y="355" />
              <mxPoint x="121" y="355" />
            </Array>
          </mxGeometry>
        </mxCell>
        <mxCell id="Dnke_G4tDf7t7-ALpO1Q-130" style="edgeStyle=orthogonalEdgeStyle;rounded=0;orthogonalLoop=1;jettySize=auto;html=1;" edge="1" parent="Dnke_G4tDf7t7-ALpO1Q-101">
          <mxGeometry relative="1" as="geometry">
            <mxPoint x="121" y="408" as="sourcePoint" />
            <mxPoint x="121" y="277" as="targetPoint" />
          </mxGeometry>
        </mxCell>
        <mxCell id="Dnke_G4tDf7t7-ALpO1Q-131" style="edgeStyle=orthogonalEdgeStyle;rounded=0;orthogonalLoop=1;jettySize=auto;html=1;" edge="1" parent="Dnke_G4tDf7t7-ALpO1Q-101">
          <mxGeometry relative="1" as="geometry">
            <mxPoint x="190" y="408" as="sourcePoint" />
            <mxPoint x="121" y="277" as="targetPoint" />
            <Array as="points">
              <mxPoint x="190" y="355" />
              <mxPoint x="121" y="355" />
            </Array>
          </mxGeometry>
        </mxCell>
        <mxCell id="Dnke_G4tDf7t7-ALpO1Q-102" value="Other Regions" style="points=[[0,0],[0.25,0],[0.5,0],[0.75,0],[1,0],[1,0.25],[1,0.5],[1,0.75],[1,1],[0.75,1],[0.5,1],[0.25,1],[0,1],[0,0.75],[0,0.5],[0,0.25]];outlineConnect=0;gradientColor=none;html=1;whiteSpace=wrap;fontSize=12;fontStyle=0;container=1;pointerEvents=0;collapsible=0;recursiveResize=0;shape=mxgraph.aws4.group;grIcon=mxgraph.aws4.group_region;strokeColor=#147EBA;fillColor=none;verticalAlign=top;align=left;spacingLeft=30;fontColor=#147EBA;dashed=1;" vertex="1" parent="Dnke_G4tDf7t7-ALpO1Q-100">
          <mxGeometry x="612" y="50" width="206" height="475" as="geometry" />
        </mxCell>
        <mxCell id="Dnke_G4tDf7t7-ALpO1Q-123" style="edgeStyle=orthogonalEdgeStyle;rounded=0;orthogonalLoop=1;jettySize=auto;html=1;" edge="1" parent="Dnke_G4tDf7t7-ALpO1Q-102" source="Dnke_G4tDf7t7-ALpO1Q-111">
          <mxGeometry relative="1" as="geometry">
            <mxPoint x="102.99999999999909" y="281.0169369739274" as="targetPoint" />
            <Array as="points">
              <mxPoint x="34" y="359" />
              <mxPoint x="103" y="359" />
            </Array>
          </mxGeometry>
        </mxCell>
        <mxCell id="Dnke_G4tDf7t7-ALpO1Q-111" value="" style="sketch=0;outlineConnect=0;fontColor=#232F3E;gradientColor=none;fillColor=#3F8624;strokeColor=none;dashed=0;verticalLabelPosition=bottom;verticalAlign=top;align=center;html=1;fontSize=12;fontStyle=0;aspect=fixed;pointerEvents=1;shape=mxgraph.aws4.bucket;" vertex="1" parent="Dnke_G4tDf7t7-ALpO1Q-102">
          <mxGeometry x="13" y="412" width="42" height="43.68" as="geometry" />
        </mxCell>
        <mxCell id="Dnke_G4tDf7t7-ALpO1Q-124" style="edgeStyle=orthogonalEdgeStyle;rounded=0;orthogonalLoop=1;jettySize=auto;html=1;" edge="1" parent="Dnke_G4tDf7t7-ALpO1Q-102" source="Dnke_G4tDf7t7-ALpO1Q-112">
          <mxGeometry relative="1" as="geometry">
            <mxPoint x="103.00000000000091" y="281.0169369739274" as="targetPoint" />
          </mxGeometry>
        </mxCell>
        <mxCell id="Dnke_G4tDf7t7-ALpO1Q-112" value="" style="sketch=0;outlineConnect=0;fontColor=#232F3E;gradientColor=none;fillColor=#3F8624;strokeColor=none;dashed=0;verticalLabelPosition=bottom;verticalAlign=top;align=center;html=1;fontSize=12;fontStyle=0;aspect=fixed;pointerEvents=1;shape=mxgraph.aws4.bucket;" vertex="1" parent="Dnke_G4tDf7t7-ALpO1Q-102">
          <mxGeometry x="82" y="412" width="42" height="43.68" as="geometry" />
        </mxCell>
        <mxCell id="Dnke_G4tDf7t7-ALpO1Q-125" style="edgeStyle=orthogonalEdgeStyle;rounded=0;orthogonalLoop=1;jettySize=auto;html=1;" edge="1" parent="Dnke_G4tDf7t7-ALpO1Q-102" source="Dnke_G4tDf7t7-ALpO1Q-113">
          <mxGeometry relative="1" as="geometry">
            <mxPoint x="102.99999999999909" y="281.0169369739274" as="targetPoint" />
            <Array as="points">
              <mxPoint x="172" y="359" />
              <mxPoint x="103" y="359" />
            </Array>
          </mxGeometry>
        </mxCell>
        <mxCell id="Dnke_G4tDf7t7-ALpO1Q-113" value="" style="sketch=0;outlineConnect=0;fontColor=#232F3E;gradientColor=none;fillColor=#3F8624;strokeColor=none;dashed=0;verticalLabelPosition=bottom;verticalAlign=top;align=center;html=1;fontSize=12;fontStyle=0;aspect=fixed;pointerEvents=1;shape=mxgraph.aws4.bucket;" vertex="1" parent="Dnke_G4tDf7t7-ALpO1Q-102">
          <mxGeometry x="151" y="412" width="42" height="43.68" as="geometry" />
        </mxCell>
        <mxCell id="Dnke_G4tDf7t7-ALpO1Q-178" value="" style="shape=image;verticalLabelPosition=bottom;labelBackgroundColor=default;verticalAlign=top;aspect=fixed;imageAspect=0;image=data:image/svg+xml,%3C%3Fxml%20version%3D%221.0%22%20encoding%3D%22utf-8%22%3F%3E%3Csvg%20version%3D%221.0%22%20id%3D%22Layer_1%22%20xmlns%3D%22http%3A%2F%2Fwww.w3.org%2F2000%2Fsvg%22%20xmlns%3Axlink%3D%22http%3A%2F%2Fwww.w3.org%2F1999%2Fxlink%22%20x%3D%220px%22%20y%3D%220px%22%20%20width%3D%2240px%22%20height%3D%2240px%22%20viewBox%3D%220%200%2040%2040%22%20enable-background%3D%22new%200%200%2040%2040%22%20xml%3Aspace%3D%22preserve%22%3E%3Cg%20id%3D%22Shape_2_%22%3E%20%3Cpath%20fill%3D%22%23FFFFFF%22%20d%3D%22M39.8970528%2C19.9574013c0%2C11.0046177-8.9155159%2C19.9165802-19.918354%2C19.9165802%20%20c-11.0063896%2C0-19.9272289-8.9119625-19.9272289-19.9165802c0-11.0063906%2C8.9190645-19.918354%2C19.9272308-19.918354%20%20C30.9815407%2C0.0390483%2C39.8970528%2C8.9527864%2C39.8970528%2C19.9574013L39.8970528%2C19.9574013z%22%2F%3E%20%3Cpath%20fill%3D%22%23D71921%22%20d%3D%22M3.6332955%2C23.7823944c0.0124245-0.0141983%2C0.0195246-0.0390472%2C0.0283985-0.0621223%20%20c0.0266247-0.0709991%2C0.0585737-0.1402206%2C0.0816481-0.2165413c0.0283985-0.0656738%2C0.0514727-0.120697%2C0.0763226-0.1899204%20%20c0.0124247-0.0354996%2C0.0248492-0.0656738%2C0.0354989-0.0905228c0.3709621-0.9194164%2C0.8395457-1.869009%2C1.4093008-2.8168259%20%20c0.0745473-0.1686192%2C0.1526446-0.3194885%2C0.234292-0.4810085l-2.3997159%2C0.0106487l0.5839546-1.2797298%20%20c1.9737313-0.5413551%2C5.2644663-1.6435909%2C8.4096556-4.6822863l0.0869713-0.0124245h1.6560163l-2.1370239%2C4.579339%20%20l3.4327297-0.0088749l-0.6318779%2C1.3684769l-3.4256306%2C0.0142002c0%2C0-1.6080942%2C3.2144146-2.1547747%2C5.5165081%20%20c-0.4242105%2C2.5701103-0.0088749%2C4.4834938%2C2.2932196%2C5.2041168c1.4217253%2C0.4366341%2C3.1931133%2C0.3336868%2C5.1029472-0.2023449%20%20c4.4462204-1.3897743%2C9.1959534-4.4426689%2C12.6748333-8.4859772c5.7259502-6.6524687%2C5.8413219-13.4575806%2C0.2520428-15.1863699%20%20c-3.5800514-1.1199861-8.631525%2C0.1224704-13.3049364%2C2.9055738c5.8306704-3.7593188%2C12.232873-5.525382%2C16.6577911-4.1444807%20%20c0.8235741%2C0.2538166%2C1.5459709%2C0.6105785%2C2.1565514%2C1.0525384c-3.6474991-4.0202341-8.931488-6.553071-14.788784-6.553071%20%20C8.9385881%2C0.021296%2C0%2C8.9545593%2C0%2C19.9804745c0%2C4.0628319%2C1.2176073%2C7.8505497%2C3.3120346%2C11.0099411%20%20C2.5186348%2C29.0415344%2C2.632231%2C26.5370979%2C3.6332955%2C23.7823944L3.6332955%2C23.7823944L3.6332955%2C23.7823944z%22%2F%3E%20%3Cpath%20fill%3D%22%23D71921%22%20d%3D%22M36.9577599%2C9.4266958c1.3400764%2C3.624423-0.3283653%2C9.0397577-4.9414291%2C14.392972%20%20c-6.9204845%2C8.0457935-17.8541031%2C12.912674-24.4142723%2C10.8785934c-0.812922-0.2573662-1.521122-0.6070251-2.1281505-1.0401115%20%20c3.6457233%2C3.8853378%2C8.8196659%2C6.3205528%2C14.5669174%2C6.3205528C31.0631866%2C39.9787025%2C40%2C31.0418911%2C40%2C20.015976%20%20C40%2C16.1253128%2C38.8888893%2C12.4920139%2C36.9577599%2C9.4266958L36.9577599%2C9.4266958L36.9577599%2C9.4266958z%22%2F%3E%3C%2Fg%3E%3Crect%20fill%3D%22none%22%20width%3D%2240%22%20height%3D%2240%22%2F%3E%3C%2Fsvg%3E;fontSize=14;" vertex="1" parent="Dnke_G4tDf7t7-ALpO1Q-102">
          <mxGeometry x="64" y="46.5" width="82" height="82" as="geometry" />
        </mxCell>
        <mxCell id="Dnke_G4tDf7t7-ALpO1Q-179" value="&lt;font style=&quot;font-size: 16px;&quot;&gt;Trend FSS Scanner Solution&lt;br&gt;&lt;/font&gt;" style="text;html=1;strokeColor=none;fillColor=none;align=center;verticalAlign=middle;whiteSpace=wrap;rounded=0;" vertex="1" parent="Dnke_G4tDf7t7-ALpO1Q-102">
          <mxGeometry x="34" y="136.5" width="138" height="30" as="geometry" />
        </mxCell>
        <mxCell id="Dnke_G4tDf7t7-ALpO1Q-181" value="&lt;font style=&quot;font-size: 16px;&quot;&gt;EventBus&lt;/font&gt;" style="sketch=0;outlineConnect=0;fontColor=#232F3E;gradientColor=none;fillColor=#B0084D;strokeColor=none;dashed=0;verticalLabelPosition=bottom;verticalAlign=top;align=center;html=1;fontSize=12;fontStyle=0;aspect=fixed;pointerEvents=1;shape=mxgraph.aws4.eventbridge_default_event_bus_resource;" vertex="1" parent="Dnke_G4tDf7t7-ALpO1Q-102">
          <mxGeometry x="64" y="219.5" width="78" height="53" as="geometry" />
        </mxCell>
        <mxCell id="Dnke_G4tDf7t7-ALpO1Q-103" value="Other Regions " style="points=[[0,0],[0.25,0],[0.5,0],[0.75,0],[1,0],[1,0.25],[1,0.5],[1,0.75],[1,1],[0.75,1],[0.5,1],[0.25,1],[0,1],[0,0.75],[0,0.5],[0,0.25]];outlineConnect=0;gradientColor=none;html=1;whiteSpace=wrap;fontSize=12;fontStyle=0;container=1;pointerEvents=0;collapsible=0;recursiveResize=0;shape=mxgraph.aws4.group;grIcon=mxgraph.aws4.group_region;strokeColor=#147EBA;fillColor=none;verticalAlign=top;align=left;spacingLeft=30;fontColor=#147EBA;dashed=1;" vertex="1" parent="Dnke_G4tDf7t7-ALpO1Q-100">
          <mxGeometry x="341" y="50" width="206" height="473" as="geometry" />
        </mxCell>
        <mxCell id="Dnke_G4tDf7t7-ALpO1Q-108" value="" style="sketch=0;outlineConnect=0;fontColor=#232F3E;gradientColor=none;fillColor=#3F8624;strokeColor=none;dashed=0;verticalLabelPosition=bottom;verticalAlign=top;align=center;html=1;fontSize=12;fontStyle=0;aspect=fixed;pointerEvents=1;shape=mxgraph.aws4.bucket;" vertex="1" parent="Dnke_G4tDf7t7-ALpO1Q-103">
          <mxGeometry x="7" y="411" width="42" height="43.68" as="geometry" />
        </mxCell>
        <mxCell id="Dnke_G4tDf7t7-ALpO1Q-109" value="" style="sketch=0;outlineConnect=0;fontColor=#232F3E;gradientColor=none;fillColor=#3F8624;strokeColor=none;dashed=0;verticalLabelPosition=bottom;verticalAlign=top;align=center;html=1;fontSize=12;fontStyle=0;aspect=fixed;pointerEvents=1;shape=mxgraph.aws4.bucket;" vertex="1" parent="Dnke_G4tDf7t7-ALpO1Q-103">
          <mxGeometry x="76" y="411" width="42" height="43.68" as="geometry" />
        </mxCell>
        <mxCell id="Dnke_G4tDf7t7-ALpO1Q-110" value="" style="sketch=0;outlineConnect=0;fontColor=#232F3E;gradientColor=none;fillColor=#3F8624;strokeColor=none;dashed=0;verticalLabelPosition=bottom;verticalAlign=top;align=center;html=1;fontSize=12;fontStyle=0;aspect=fixed;pointerEvents=1;shape=mxgraph.aws4.bucket;" vertex="1" parent="Dnke_G4tDf7t7-ALpO1Q-103">
          <mxGeometry x="145" y="411" width="42" height="43.68" as="geometry" />
        </mxCell>
        <mxCell id="Dnke_G4tDf7t7-ALpO1Q-126" style="edgeStyle=orthogonalEdgeStyle;rounded=0;orthogonalLoop=1;jettySize=auto;html=1;" edge="1" parent="Dnke_G4tDf7t7-ALpO1Q-103">
          <mxGeometry relative="1" as="geometry">
            <mxPoint x="28" y="411" as="sourcePoint" />
            <mxPoint x="97" y="280" as="targetPoint" />
            <Array as="points">
              <mxPoint x="28" y="358" />
              <mxPoint x="97" y="358" />
            </Array>
          </mxGeometry>
        </mxCell>
        <mxCell id="Dnke_G4tDf7t7-ALpO1Q-127" style="edgeStyle=orthogonalEdgeStyle;rounded=0;orthogonalLoop=1;jettySize=auto;html=1;" edge="1" parent="Dnke_G4tDf7t7-ALpO1Q-103">
          <mxGeometry relative="1" as="geometry">
            <mxPoint x="97" y="411" as="sourcePoint" />
            <mxPoint x="97" y="280" as="targetPoint" />
          </mxGeometry>
        </mxCell>
        <mxCell id="Dnke_G4tDf7t7-ALpO1Q-128" style="edgeStyle=orthogonalEdgeStyle;rounded=0;orthogonalLoop=1;jettySize=auto;html=1;" edge="1" parent="Dnke_G4tDf7t7-ALpO1Q-103">
          <mxGeometry relative="1" as="geometry">
            <mxPoint x="166" y="411" as="sourcePoint" />
            <mxPoint x="97" y="280" as="targetPoint" />
            <Array as="points">
              <mxPoint x="166" y="358" />
              <mxPoint x="97" y="358" />
            </Array>
          </mxGeometry>
        </mxCell>
        <mxCell id="Dnke_G4tDf7t7-ALpO1Q-176" value="" style="shape=image;verticalLabelPosition=bottom;labelBackgroundColor=default;verticalAlign=top;aspect=fixed;imageAspect=0;image=data:image/svg+xml,%3C%3Fxml%20version%3D%221.0%22%20encoding%3D%22utf-8%22%3F%3E%3Csvg%20version%3D%221.0%22%20id%3D%22Layer_1%22%20xmlns%3D%22http%3A%2F%2Fwww.w3.org%2F2000%2Fsvg%22%20xmlns%3Axlink%3D%22http%3A%2F%2Fwww.w3.org%2F1999%2Fxlink%22%20x%3D%220px%22%20y%3D%220px%22%20%20width%3D%2240px%22%20height%3D%2240px%22%20viewBox%3D%220%200%2040%2040%22%20enable-background%3D%22new%200%200%2040%2040%22%20xml%3Aspace%3D%22preserve%22%3E%3Cg%20id%3D%22Shape_2_%22%3E%20%3Cpath%20fill%3D%22%23FFFFFF%22%20d%3D%22M39.8970528%2C19.9574013c0%2C11.0046177-8.9155159%2C19.9165802-19.918354%2C19.9165802%20%20c-11.0063896%2C0-19.9272289-8.9119625-19.9272289-19.9165802c0-11.0063906%2C8.9190645-19.918354%2C19.9272308-19.918354%20%20C30.9815407%2C0.0390483%2C39.8970528%2C8.9527864%2C39.8970528%2C19.9574013L39.8970528%2C19.9574013z%22%2F%3E%20%3Cpath%20fill%3D%22%23D71921%22%20d%3D%22M3.6332955%2C23.7823944c0.0124245-0.0141983%2C0.0195246-0.0390472%2C0.0283985-0.0621223%20%20c0.0266247-0.0709991%2C0.0585737-0.1402206%2C0.0816481-0.2165413c0.0283985-0.0656738%2C0.0514727-0.120697%2C0.0763226-0.1899204%20%20c0.0124247-0.0354996%2C0.0248492-0.0656738%2C0.0354989-0.0905228c0.3709621-0.9194164%2C0.8395457-1.869009%2C1.4093008-2.8168259%20%20c0.0745473-0.1686192%2C0.1526446-0.3194885%2C0.234292-0.4810085l-2.3997159%2C0.0106487l0.5839546-1.2797298%20%20c1.9737313-0.5413551%2C5.2644663-1.6435909%2C8.4096556-4.6822863l0.0869713-0.0124245h1.6560163l-2.1370239%2C4.579339%20%20l3.4327297-0.0088749l-0.6318779%2C1.3684769l-3.4256306%2C0.0142002c0%2C0-1.6080942%2C3.2144146-2.1547747%2C5.5165081%20%20c-0.4242105%2C2.5701103-0.0088749%2C4.4834938%2C2.2932196%2C5.2041168c1.4217253%2C0.4366341%2C3.1931133%2C0.3336868%2C5.1029472-0.2023449%20%20c4.4462204-1.3897743%2C9.1959534-4.4426689%2C12.6748333-8.4859772c5.7259502-6.6524687%2C5.8413219-13.4575806%2C0.2520428-15.1863699%20%20c-3.5800514-1.1199861-8.631525%2C0.1224704-13.3049364%2C2.9055738c5.8306704-3.7593188%2C12.232873-5.525382%2C16.6577911-4.1444807%20%20c0.8235741%2C0.2538166%2C1.5459709%2C0.6105785%2C2.1565514%2C1.0525384c-3.6474991-4.0202341-8.931488-6.553071-14.788784-6.553071%20%20C8.9385881%2C0.021296%2C0%2C8.9545593%2C0%2C19.9804745c0%2C4.0628319%2C1.2176073%2C7.8505497%2C3.3120346%2C11.0099411%20%20C2.5186348%2C29.0415344%2C2.632231%2C26.5370979%2C3.6332955%2C23.7823944L3.6332955%2C23.7823944L3.6332955%2C23.7823944z%22%2F%3E%20%3Cpath%20fill%3D%22%23D71921%22%20d%3D%22M36.9577599%2C9.4266958c1.3400764%2C3.624423-0.3283653%2C9.0397577-4.9414291%2C14.392972%20%20c-6.9204845%2C8.0457935-17.8541031%2C12.912674-24.4142723%2C10.8785934c-0.812922-0.2573662-1.521122-0.6070251-2.1281505-1.0401115%20%20c3.6457233%2C3.8853378%2C8.8196659%2C6.3205528%2C14.5669174%2C6.3205528C31.0631866%2C39.9787025%2C40%2C31.0418911%2C40%2C20.015976%20%20C40%2C16.1253128%2C38.8888893%2C12.4920139%2C36.9577599%2C9.4266958L36.9577599%2C9.4266958L36.9577599%2C9.4266958z%22%2F%3E%3C%2Fg%3E%3Crect%20fill%3D%22none%22%20width%3D%2240%22%20height%3D%2240%22%2F%3E%3C%2Fsvg%3E;fontSize=14;" vertex="1" parent="Dnke_G4tDf7t7-ALpO1Q-103">
          <mxGeometry x="58" y="43.5" width="82" height="82" as="geometry" />
        </mxCell>
        <mxCell id="Dnke_G4tDf7t7-ALpO1Q-177" value="&lt;font style=&quot;font-size: 16px;&quot;&gt;Trend FSS Scanner Solution&lt;br&gt;&lt;/font&gt;" style="text;html=1;strokeColor=none;fillColor=none;align=center;verticalAlign=middle;whiteSpace=wrap;rounded=0;" vertex="1" parent="Dnke_G4tDf7t7-ALpO1Q-103">
          <mxGeometry x="28" y="133.5" width="138" height="30" as="geometry" />
        </mxCell>
        <mxCell id="Dnke_G4tDf7t7-ALpO1Q-180" value="&lt;font style=&quot;font-size: 16px;&quot;&gt;EventBus&lt;/font&gt;" style="sketch=0;outlineConnect=0;fontColor=#232F3E;gradientColor=none;fillColor=#B0084D;strokeColor=none;dashed=0;verticalLabelPosition=bottom;verticalAlign=top;align=center;html=1;fontSize=12;fontStyle=0;aspect=fixed;pointerEvents=1;shape=mxgraph.aws4.eventbridge_default_event_bus_resource;" vertex="1" parent="Dnke_G4tDf7t7-ALpO1Q-103">
          <mxGeometry x="58" y="216.5" width="78" height="53" as="geometry" />
        </mxCell>
        <mxCell id="Dnke_G4tDf7t7-ALpO1Q-137" value="&lt;font style=&quot;font-size: 18px;&quot;&gt;Custom Resource Runs in Main Region and Enables Eventbridge Notifications on all S3 Buckets&lt;/font&gt;" style="shape=process;whiteSpace=wrap;html=1;backgroundOutline=1;strokeColor=#ff9200;rounded=0;strokeWidth=4;" vertex="1" parent="1">
          <mxGeometry x="907" y="292.25" width="259.5" height="161.5" as="geometry" />
        </mxCell>
        <mxCell id="Dnke_G4tDf7t7-ALpO1Q-138" value="" style="edgeStyle=orthogonalEdgeStyle;rounded=0;orthogonalLoop=1;jettySize=auto;html=1;" edge="1" parent="1" source="Dnke_G4tDf7t7-ALpO1Q-133" target="Dnke_G4tDf7t7-ALpO1Q-137">
          <mxGeometry relative="1" as="geometry" />
        </mxCell>
        <mxCell id="Dnke_G4tDf7t7-ALpO1Q-140" style="edgeStyle=orthogonalEdgeStyle;rounded=0;orthogonalLoop=1;jettySize=auto;html=1;entryX=0;entryY=0.5;entryDx=0;entryDy=0;" edge="1" parent="1" source="Dnke_G4tDf7t7-ALpO1Q-139" target="Dnke_G4tDf7t7-ALpO1Q-101">
          <mxGeometry relative="1" as="geometry" />
        </mxCell>
        <mxCell id="Dnke_G4tDf7t7-ALpO1Q-139" value="" style="sketch=0;outlineConnect=0;fontColor=#232F3E;gradientColor=none;fillColor=#D45B07;strokeColor=none;dashed=0;verticalLabelPosition=bottom;verticalAlign=top;align=center;html=1;fontSize=12;fontStyle=0;aspect=fixed;pointerEvents=1;shape=mxgraph.aws4.lambda_function;" vertex="1" parent="1">
          <mxGeometry x="990.75" y="190.5" width="92" height="92" as="geometry" />
        </mxCell>
      </root>
    </mxGraphModel>
  </diagram>
</mxfile>
